<?xml version="1.0" encoding="utf-8" ?>
<svg xmlns="http://www.w3.org/2000/svg" xmlns:xlink="http://www.w3.org/1999/xlink" width="1024" height="1023" viewBox="0 0 1024 1023">
	<!-- <path fill="#339CC3" d="M0 0L1024 0L1024 1024L0 1024L0 0Z"/> -->
	<defs>
		<linearGradient id="gradient_0" gradientUnits="userSpaceOnUse" x1="934.34668" y1="599.38708" x2="904.92737" y2="555.78583">
			<stop offset="0" stop-color="#D0E6E5"/>
			<stop offset="1" stop-color="#F5EBED"/>
		</linearGradient>
	</defs>
	<path fill="url(#gradient_0)" d="M941.275 502.246C953.821 513.163 967.503 538.186 968.72 555.015C969.451 565.127 965.845 574.718 959.193 582.277C941.819 602.02 896.906 607.457 871.838 614.173C870.152 614.654 868.358 615.335 866.64 615.636C863.528 616.579 860.414 617.4 857.252 618.16C861.603 615.941 866.376 614.657 870.579 612.139C877.878 608.84 885.164 605.431 892.639 602.549C913.986 594.319 948.756 584.346 957.676 561.222C962.784 547.981 959.322 534.547 953.704 522.112C950.476 514.968 945.764 508.63 941.275 502.246Z"/>
	<path fill="#56BCCF" d="M853.328 533.646C862.323 532.224 871.382 531.539 880.459 530.86C879.59 543.898 878.807 557.009 877.058 569.964C875.84 578.991 873.944 587.921 872.295 596.875C871.407 601.699 870.873 606.652 869.828 611.435C861.689 608.15 854.017 603.714 845.773 600.469C847.105 587.816 850.233 575.417 851.574 562.758C852.591 553.164 851.896 543.126 853.328 533.646Z"/>
	<path fill="#7FD2DA" d="M800.358 297.276C809.715 290.798 818.768 285.395 829.812 282.196C840.421 279.122 851.336 278.628 862.063 276.348C885.594 271.348 899.803 255.45 904.032 231.819C905.884 221.465 905.066 210.556 903.58 200.196C903.156 197.234 899.541 186.322 900.318 184.468C911.255 211.674 917.531 244.404 905.668 272.359C900.657 284.169 891.697 295.505 879.491 300.329C865.999 305.661 855.067 301.154 841.558 299.392C829.4 297.805 816.421 299.412 805.157 304.244C792.327 308.529 780.863 319.512 771.416 328.809C779.741 315.502 787.882 306.742 800.358 297.276Z"/>
	<path fill="#56BCCF" d="M781.629 276.527C788.972 280.268 795.784 290.655 800.358 297.276C787.882 306.742 779.741 315.502 771.416 328.809C780.863 319.512 792.327 308.529 805.157 304.244C817.184 314.907 842.235 357.658 847.911 372.917C841.002 370.466 834.263 367.546 827.346 365.112C811.08 359.387 793.313 354.415 776.214 352.057C769.515 342.064 762.096 333.308 751.785 326.953C763.661 311.718 773.132 293.809 781.629 276.527Z"/>
	<path fill="#56BCCF" d="M148.078 411.879C165.609 435.726 187.65 457.226 214.628 470.131C213.807 476.649 212.972 483.213 211.282 489.574C196.16 505.521 175.616 519.04 154.495 525.306C145.608 527.943 136.115 529.386 126.925 530.474C126.775 504.139 131.749 473.6 138.232 448.054C141.305 435.945 145.253 424.042 148.078 411.879Z"/>
	<path fill="#56BCCF" d="M640.734 181.372C646.342 180.378 690.913 204.615 698.29 208.983Q711.881 217.148 724.894 226.205C735.319 233.488 746.024 241.373 755.179 250.22C758.606 253.532 761.476 257.237 764.751 260.647C755.372 265.889 744.571 269.789 734.138 272.287C702.116 279.957 662.652 274.698 634.428 257.391C643.261 237.359 643.229 203.071 640.734 181.372Z"/>
	<path fill="#F0A021" d="M119.334 345.284C131.227 357.069 143.891 363.225 159.536 368.376C193.452 377.279 226.077 375.225 256.951 358.063C252.29 370.867 243.528 383.222 237.46 395.547C233.302 403.993 230.728 413.256 226.522 421.591C225.019 425.339 224.367 429.29 222.978 433.018C221.7 437.122 220.587 441.399 218.891 445.35C216.715 453.494 215.691 461.787 214.628 470.131C187.65 457.226 165.609 435.726 148.078 411.879C141.425 401.828 135.038 390.044 131.115 378.631C126.425 367.75 122.73 356.626 119.334 345.284Z"/>
	<path fill="#C67A17" d="M222.978 433.018C200.502 425.547 171.57 405.493 157.17 386.667L157.317 386.16Q159.108 387.85 160.958 389.476Q162.808 391.101 164.714 392.661Q166.62 394.22 168.58 395.711Q170.541 397.201 172.552 398.622Q174.564 400.042 176.625 401.391Q178.686 402.739 180.793 404.013Q182.9 405.288 185.051 406.487Q187.202 407.686 189.394 408.809Q191.586 409.931 193.816 410.975Q196.047 412.019 198.313 412.983Q200.579 413.948 202.877 414.831Q205.176 415.715 207.505 416.516Q209.833 417.318 212.189 418.037Q214.544 418.755 216.923 419.39Q219.303 420.025 221.703 420.576Q224.104 421.126 226.522 421.591C225.019 425.339 224.367 429.29 222.978 433.018Z"/>
	<path fill="#C67A17" d="M131.115 378.631C131.372 378.846 131.635 379.056 131.887 379.277C135.806 382.714 140.701 392.784 144.367 397.402Q145.789 399.221 147.272 400.99Q148.756 402.76 150.298 404.478Q151.841 406.195 153.441 407.86Q155.041 409.524 156.697 411.133Q158.353 412.742 160.063 414.294Q161.772 415.845 163.534 417.338Q165.295 418.83 167.107 420.262Q168.918 421.694 170.777 423.063Q172.636 424.432 174.541 425.737Q176.445 427.042 178.393 428.282Q180.341 429.521 182.33 430.694Q184.319 431.866 186.346 432.97Q188.374 434.074 190.438 435.109Q192.502 436.143 194.601 437.107Q196.699 438.07 198.828 438.962Q200.958 439.853 203.117 440.672C208.15 442.586 213.538 444.587 218.891 445.35C216.715 453.494 215.691 461.787 214.628 470.131C187.65 457.226 165.609 435.726 148.078 411.879C141.425 401.828 135.038 390.044 131.115 378.631Z"/>
	<path fill="#C67A17" d="M764.751 260.647C777.581 254.058 787.564 245.256 796.862 234.403C795.978 237.307 794.868 240.172 793.845 243.032C790.239 254.288 786.455 265.73 781.629 276.527C773.132 293.809 763.661 311.718 751.785 326.953C746.431 333.163 740.615 340.582 734.116 345.56L722.068 344.943C717.978 344.143 710.401 343.557 706.51 345.101C703.355 341.625 700.535 337.753 697.617 334.072C689.594 323.169 678.548 313.317 668.437 304.369Q663.816 300.864 659.42 297.08C648.722 289.077 637.834 281.516 626.315 274.736C629.766 269.345 631.498 263.049 634.428 257.391C662.652 274.698 702.116 279.957 734.138 272.287C744.571 269.789 755.372 265.889 764.751 260.647Z"/>
	<path fill="#AE620C" d="M659.42 297.08C669.694 297.655 679.681 299.179 690.025 299.089C696.917 299.029 704.437 297.113 711.177 297.712C696.88 302.028 683.387 304.68 668.437 304.369Q663.816 300.864 659.42 297.08Z"/>
	<path fill="#AE620C" d="M789.681 245.006C791.096 244.386 792.475 243.745 793.845 243.032C790.239 254.288 786.455 265.73 781.629 276.527C773.132 293.809 763.661 311.718 751.785 326.953C746.431 333.163 740.615 340.582 734.116 345.56L722.068 344.943C717.978 344.143 710.401 343.557 706.51 345.101C703.355 341.625 700.535 337.753 697.617 334.072C701.517 331.652 705.696 329.721 709.581 327.223C729.959 314.116 742.531 303.806 759.247 286.256C764.014 281.252 768.865 276.306 773.054 270.795C779.231 262.668 784.581 253.834 789.681 245.006Z"/>
	<path fill="#F0A021" d="M751.785 326.953C762.096 333.308 769.515 342.064 776.214 352.057C793.313 354.415 811.08 359.387 827.346 365.112C834.263 367.546 841.002 370.466 847.911 372.917C854.33 376.244 861.16 378.825 867.718 381.882C876.22 385.846 884.56 390.235 893.151 393.992C890.883 393.94 888.525 394.04 886.311 393.509Q878.919 393.292 871.539 393.757Q864.159 394.221 856.853 395.363C847.963 397.175 837.975 399.569 829.996 403.994C814.42 411.626 801.385 421.757 789.343 434.145C786.611 437.011 783.772 439.826 781.163 442.803C777.482 437.22 766.926 431.222 765.408 424.819C759.436 419.036 756.998 403.887 750.203 398.085C749.533 397.857 749.521 397.957 749.072 397.441C748.018 396.231 747.898 394.405 747.976 392.875C747.364 390.599 745.629 388.117 744.429 386.071C736.904 373.242 727.342 362.847 717.33 352.008C715.769 350.319 714.158 347.519 712.334 346.275C711.817 345.922 711.376 345.649 710.896 345.236L712.416 345.274L712.24 344.543L712.497 345.106C715.67 344.856 718.885 344.945 722.068 344.943L734.116 345.56C740.615 340.582 746.431 333.163 751.785 326.953Z"/>
	<path fill="#AE620C" d="M747.976 392.875C753.814 391.121 759.483 388.985 765.428 387.57C781.779 383.677 803.631 381.642 820.322 383.946L820.739 384.313L819.832 384.323C801.064 384.643 786.796 387.599 768.812 392.554C762.596 394.267 756.24 395.806 750.203 398.085C749.533 397.857 749.521 397.957 749.072 397.441C748.018 396.231 747.898 394.405 747.976 392.875Z"/>
	<path fill="#7FD2DA" d="M751.785 326.953C762.096 333.308 769.515 342.064 776.214 352.057C762.122 350.406 748.228 347.106 734.116 345.56C740.615 340.582 746.431 333.163 751.785 326.953Z"/>
	<path fill="#AE620C" d="M765.408 424.819C773.472 417.418 783.27 410.359 793.005 405.422C818.762 392.361 858.571 384.347 886.311 393.509Q878.919 393.292 871.539 393.757Q864.159 394.221 856.853 395.363C847.963 397.175 837.975 399.569 829.996 403.994C814.42 411.626 801.385 421.757 789.343 434.145C786.611 437.011 783.772 439.826 781.163 442.803C777.482 437.22 766.926 431.222 765.408 424.819Z"/>
	<path fill="#56BCCF" d="M257.645 230.146L257.691 230.678C258.36 239.03 257.881 247.456 258.55 255.829C260.204 276.522 264.915 296.613 270.781 316.478C272.435 322.078 273.921 327.912 276.061 333.343C270.742 341.391 261.164 350.02 256.951 358.063C226.077 375.225 193.452 377.279 159.536 368.376C162.388 360.246 167.614 351.881 171.904 344.414C189.89 313.11 210.187 286.032 234.716 259.613C242.147 251.61 249.313 243.688 257.581 236.529C257.501 234.381 257.453 232.292 257.645 230.146Z"/>
	<path fill="#F0A021" d="M211.282 489.574C210.366 505.958 210.316 521.973 211.481 538.345C211.839 541.426 212.344 544.574 212.489 547.669C212.95 552.538 216.866 571.582 216.419 574.061C216.332 582.577 222.664 596.122 224.604 605.107C216.161 604.243 207.689 604.038 199.262 602.911C174.081 599.542 150.597 590.392 128.883 577.406C110.747 565.716 89.0422 551.098 76.1087 533.593C71.799 530.269 67.768 524.864 63.9019 520.911C82.983 530.354 106.004 531.91 126.925 530.474C136.115 529.386 145.608 527.943 154.495 525.306C175.616 519.04 196.16 505.521 211.282 489.574Z"/>
	<path fill="#C67A17" d="M212.489 547.669C193.283 553.455 174.548 556.437 154.422 555.457C150.926 555.287 145.607 555.352 142.446 553.768C147.36 554.652 153.256 554.005 158.229 553.468C178.747 551.251 192.721 545.805 211.481 538.345C211.839 541.426 212.344 544.574 212.489 547.669Z"/>
	<path fill="#C67A17" d="M76.1087 533.593C76.4012 533.71 76.6973 533.819 76.9861 533.945C83.5058 536.789 88.4369 543.786 94.7856 547.326C102.37 551.555 110.052 556.153 117.885 559.858C141.077 570.826 168.635 577.913 194.381 576.926C201.81 576.642 209.127 575.443 216.419 574.061C216.332 582.577 222.664 596.122 224.604 605.107C216.161 604.243 207.689 604.038 199.262 602.911C174.081 599.542 150.597 590.392 128.883 577.406C110.747 565.716 89.0422 551.098 76.1087 533.593Z"/>
	<path fill="#56BCCF" d="M128.883 577.406C150.597 590.392 174.081 599.542 199.262 602.911C207.689 604.038 216.161 604.243 224.604 605.107C228.773 615.91 233.596 626.433 237.795 637.208C222.413 678.169 211.402 692.322 171.79 712.396C166.572 704.758 162.766 696.232 158.954 687.833C151.608 671.652 144.955 654.819 140.314 637.645C137.752 628.164 135.923 618.416 133.873 608.812C131.684 598.559 129.174 587.919 128.883 577.406Z"/>
	<path fill="#C67A17" d="M631.263 129.914C633.625 140.811 636.12 151.777 638.024 162.764C639.093 168.933 639.465 175.246 640.734 181.372C643.229 203.071 643.261 237.359 634.428 257.391C631.498 263.049 629.766 269.345 626.315 274.736C617.072 269.098 607.092 265.06 597.664 259.814C585.742 254.49 573.494 250.372 561.11 246.3C558.188 245.743 555.33 244.593 552.514 243.643C545.534 240.763 521.967 236.52 514.763 237.469C513.888 237.641 514.121 237.722 513.454 237.519C503.363 234.449 488.629 235.459 477.881 235.285C475.454 218.284 470.453 200.437 465.644 183.934C462.739 173.962 457.897 162.76 457.291 152.395C468.654 175.908 487.003 205.068 512.894 214.106C528.166 219.438 545.771 214.054 559.704 207.237Q563.661 205.327 567.382 202.99Q571.104 200.653 574.543 197.919C573.331 194.56 573.86 186.569 573.441 182.682C572.813 176.868 571.724 171.154 570.514 165.437C581.44 167.278 591.939 169.564 602.523 172.865C611.716 163.067 619.169 152.497 625.986 140.948C627.789 137.305 629.726 133.677 631.263 129.914Z"/>
	<path fill="#AE620C" d="M552.514 243.643C558.884 241.152 565.146 238.638 570.963 234.983C583.744 226.953 601.156 209.903 606.937 195.769C607.04 195.517 607.121 195.256 607.213 194.999L607.559 195.188C606.78 198.927 604.861 202.49 603.208 205.911C597.281 218.173 590.205 229.192 578.598 236.799C573.458 240.167 567.597 243.721 561.643 245.353L561.11 246.3C558.188 245.743 555.33 244.593 552.514 243.643Z"/>
	<path fill="#56BCCF" d="M570.514 165.437C581.44 167.278 591.939 169.564 602.523 172.865C594.086 182.337 584.836 190.514 574.543 197.919C573.331 194.56 573.86 186.569 573.441 182.682C572.813 176.868 571.724 171.154 570.514 165.437Z"/>
	<path fill="#AE620C" d="M631.263 129.914C633.625 140.811 636.12 151.777 638.024 162.764C639.093 168.933 639.465 175.246 640.734 181.372C643.229 203.071 643.261 237.359 634.428 257.391C631.498 263.049 629.766 269.345 626.315 274.736C617.072 269.098 607.092 265.06 597.664 259.814C599.314 258.92 600.594 257.307 601.707 255.828C606.613 249.314 610.099 241.606 613.345 234.154C626.425 204.126 630.518 173.318 625.986 140.948C627.789 137.305 629.726 133.677 631.263 129.914Z"/>
	<path fill="#56BCCF" d="M397.186 782.281C405.357 784.48 413.337 787.318 421.563 789.322C431.759 791.806 442.11 793.272 452.404 795.242C450.816 796.87 451.919 797.714 449.6 798.607L450.793 799.171C451.901 802.642 452.095 806.442 452.798 810.022C453.66 814.411 455.301 818.944 456.694 823.204C467.184 855.262 487.111 879.418 511.147 902.295C504.06 903.967 495.418 903.527 488.146 903.381Q481.82 903.277 475.503 902.95Q469.185 902.623 462.883 902.072Q456.58 901.521 450.301 900.748Q444.023 899.974 437.775 898.979Q431.528 897.983 425.319 896.768Q419.111 895.552 412.949 894.117Q406.788 892.682 400.681 891.03Q394.574 889.378 388.53 887.511C378.082 884.3 359.292 876.079 349.663 874.738C348.461 885.13 348.06 895.274 347.942 905.732C345.776 901.858 343.324 897.966 341.432 893.96C340.506 883.864 340.277 873.481 341.437 863.404C344.342 838.157 356.88 815.953 375.754 799.191C382.58 793.128 390.045 787.947 397.186 782.281Z"/>
	<path fill="#C67A17" d="M397.186 782.281C405.357 784.48 413.337 787.318 421.563 789.322C431.759 791.806 442.11 793.272 452.404 795.242C450.816 796.87 451.919 797.714 449.6 798.607C418.191 802.988 385.688 809.215 365.388 836.18Q363.81 838.286 362.369 840.489Q360.929 842.692 359.632 844.983Q358.335 847.273 357.187 849.642Q356.04 852.011 355.046 854.448Q354.052 856.885 353.216 859.381Q352.38 861.876 351.705 864.421Q351.03 866.965 350.519 869.547Q350.008 872.129 349.663 874.738C348.461 885.13 348.06 895.274 347.942 905.732C345.776 901.858 343.324 897.966 341.432 893.96C340.506 883.864 340.277 873.481 341.437 863.404C344.342 838.157 356.88 815.953 375.754 799.191C382.58 793.128 390.045 787.947 397.186 782.281Z"/>
	<path fill="#C67A17" d="M706.51 345.101C710.401 343.557 717.978 344.143 722.068 344.943C718.885 344.945 715.67 344.856 712.497 345.106L712.24 344.543L712.416 345.274L710.896 345.236C711.376 345.649 711.817 345.922 712.334 346.275C714.158 347.519 715.769 350.319 717.33 352.008C727.342 362.847 736.904 373.242 744.429 386.071C745.629 388.117 747.364 390.599 747.976 392.875C747.898 394.405 748.018 396.231 749.072 397.441C749.521 397.957 749.533 397.857 750.203 398.085C756.998 403.887 759.436 419.036 765.408 424.819C766.926 431.222 777.482 437.22 781.163 442.803C783.772 439.826 786.611 437.011 789.343 434.145C801.385 421.757 814.42 411.626 829.996 403.994C837.975 399.569 847.963 397.175 856.853 395.363C870.857 427.59 879.516 475.394 879.026 510.619L895.488 525.28C898.314 526.92 900.964 528.914 903.537 530.924C895.941 530.339 888.056 530.101 880.459 530.86C871.382 531.539 862.323 532.224 853.328 533.646C834.097 536.244 815.748 542.158 797.616 548.936C787.062 553.828 774.272 558.389 762.783 560.225C763.594 550.132 764.93 540.229 765.445 530.075C767.271 463.444 749.222 397.088 706.51 345.101Z"/>
	<path fill="#AE620C" d="M765.339 486.906C774.571 489.116 783.96 490.613 793.197 492.823C813.63 497.714 832.704 504.152 852.181 512.039C847.474 512 832.271 505.818 826.486 504.183C812.457 500.217 797.743 498.64 783.867 494.407C777.45 492.449 771.414 489.711 765.339 486.906Z"/>
	<path fill="#AE620C" d="M765.445 530.075C783.747 531.308 802.634 526.878 820.608 524.028C839.776 520.989 858.003 521.188 877.25 522.943C883.343 523.499 889.512 523.92 895.488 525.28C898.314 526.92 900.964 528.914 903.537 530.924C895.941 530.339 888.056 530.101 880.459 530.86C871.382 531.539 862.323 532.224 853.328 533.646C834.097 536.244 815.748 542.158 797.616 548.936C787.062 553.828 774.272 558.389 762.783 560.225C763.594 550.132 764.93 540.229 765.445 530.075Z"/>
	<path fill="#56BCCF" d="M829.996 403.994C837.975 399.569 847.963 397.175 856.853 395.363C870.857 427.59 879.516 475.394 879.026 510.619Q865.902 499.608 852.934 488.414C841.249 479.077 829.739 469.578 816.856 461.9C809.669 457.616 802.082 454.061 794.545 450.447C791.116 448.885 782.843 446.174 781.163 442.803C783.772 439.826 786.611 437.011 789.343 434.145C801.385 421.757 814.42 411.626 829.996 403.994Z"/>
	<path fill="#7FD2DA" d="M789.343 434.145C801.385 421.757 814.42 411.626 829.996 403.994C838.993 417.097 853.314 472.356 852.934 488.414C841.249 479.077 829.739 469.578 816.856 461.9C809.669 457.616 802.082 454.061 794.545 450.447C791.116 448.885 782.843 446.174 781.163 442.803C783.772 439.826 786.611 437.011 789.343 434.145Z"/>
	<path fill="#56BCCF" d="M237.795 637.208L238.636 638.419C243.668 649.332 249.886 660.034 256.423 670.115C257.938 672.22 259.572 674.304 260.912 676.524Q269.31 688.489 278.292 700.022L280.791 702.426C287.103 710.08 293.629 716.823 300.725 723.725C304.63 726.96 308.488 730.282 312.607 733.243C324.039 742.381 335.225 751.33 347.977 758.606L355.201 762.681C368.841 770.163 382.338 777.456 397.186 782.281C390.045 787.947 382.58 793.128 375.754 799.191C356.88 815.953 344.342 838.157 341.437 863.404C340.277 873.481 340.506 883.864 341.432 893.96C334.86 885.075 330.429 873.63 325.771 863.594C313.4 858.246 302.391 851.126 291.311 843.548C261.601 823.227 234.833 799.578 211.847 771.815C202.324 760.313 194.255 747.838 185.299 735.93C172.13 733.549 159.091 730.812 146.233 727.062Q140.213 725.975 134.227 724.716C140.191 722.569 146.5 721.357 152.594 719.609C159.234 717.705 165.495 715.198 171.79 712.396C211.402 692.322 222.413 678.169 237.795 637.208Z"/>
	<path fill="#F0A021" d="M312.607 733.243C324.039 742.381 335.225 751.33 347.977 758.606L355.201 762.681C368.841 770.163 382.338 777.456 397.186 782.281C390.045 787.947 382.58 793.128 375.754 799.191C356.88 815.953 344.342 838.157 341.437 863.404C340.277 873.481 340.506 883.864 341.432 893.96C334.86 885.075 330.429 873.63 325.771 863.594C307.175 818.011 305.067 781.232 312.607 733.243Z"/>
	<path fill="#C67A17" d="M347.977 758.606L355.201 762.681C345.844 777.728 339.232 796.375 335.396 813.633C334.156 819.208 333.041 825.057 332.563 830.739C332.441 832.184 332.701 837.117 331.852 837.995L331.641 837.522L332.305 837.471L331.643 837.015C330.084 816.266 334.247 793.238 341.453 773.732C343.299 768.737 346.237 764.159 347.837 759.075C347.886 758.919 347.931 758.763 347.977 758.606Z"/>
	<path fill="#F0A021" d="M237.795 637.208L238.636 638.419C243.668 649.332 249.886 660.034 256.423 670.115C257.938 672.22 259.572 674.304 260.912 676.524Q269.31 688.489 278.292 700.022L280.791 702.426C287.103 710.08 293.629 716.823 300.725 723.725C267.769 740.54 221.134 740.349 185.299 735.93C172.13 733.549 159.091 730.812 146.233 727.062Q140.213 725.975 134.227 724.716C140.191 722.569 146.5 721.357 152.594 719.609C159.234 717.705 165.495 715.198 171.79 712.396C211.402 692.322 222.413 678.169 237.795 637.208Z"/>
	<path fill="#C67A17" d="M256.423 670.115C257.938 672.22 259.572 674.304 260.912 676.524C260.709 676.885 260.494 677.24 260.266 677.585C257.306 682.061 253.037 685.949 249.042 689.479C234.255 702.544 216.91 712.456 197.45 716.45L197.662 715.806L196.884 716.26C199.207 715.68 202.029 715.053 204.075 713.807C208.732 710.973 213.726 708.713 218.395 705.877C235.958 695.208 244.003 685.725 256.423 670.115Z"/>
	<path fill="#C67A17" d="M278.292 700.022L280.791 702.426C287.103 710.08 293.629 716.823 300.725 723.725C267.769 740.54 221.134 740.349 185.299 735.93C172.13 733.549 159.091 730.812 146.233 727.062C152.54 726.481 159.126 726.989 165.461 727.094Q178.598 727.234 191.728 726.815C217.064 725.797 243.449 720.762 265.877 708.6C270.149 706.284 274.975 703.629 278.292 700.022Z"/>
	<path fill="#56BCCF" d="M616.136 766.218C630.981 758.153 644.522 748.926 658.135 738.928C664.083 745.149 669.77 751.305 676.55 756.652Q684.228 762.33 692.449 767.187Q700.671 772.044 709.349 776.029C711.042 789.264 721.647 802.649 730.635 811.864C733.628 814.933 737.088 817.681 739.972 820.794C733.324 825.92 726.396 830.593 719.451 835.302C714.204 838.86 708.016 842.388 703.728 847.1C706.644 848.997 709.549 850.905 712.543 852.678C715.869 853.752 718.869 855.227 721.857 857.03C707.832 856.975 694.158 857.076 680.165 855.9C674.632 859.056 668.701 861.635 662.931 864.332Q643.863 873.153 624.102 880.288Q604.34 887.422 584.035 892.817C573.622 895.591 562.41 896.836 552.221 900.114C557.328 916.03 564.003 928.275 574.779 941.08C558.41 935.634 538.297 925.519 525.464 913.808C520.525 911.36 515.373 905.914 511.147 902.295C487.111 879.418 467.184 855.262 456.694 823.204C455.301 818.944 453.66 814.411 452.798 810.022C452.095 806.442 451.901 802.642 450.793 799.171L449.6 798.607C451.919 797.714 450.816 796.87 452.404 795.242C463.018 796.554 473.545 797.214 484.227 797.617C488.953 797.594 493.688 797.633 498.412 797.507C512.045 797.465 526.191 795.907 539.544 793.177C552.814 791.071 565.795 786.74 578.584 782.713Q595.549 776.706 611.643 768.652C612.943 767.657 614.674 766.967 616.136 766.218Z"/>
	<path fill="#AE620C" d="M539.544 793.177C552.814 791.071 565.795 786.74 578.584 782.713C603.246 812.783 641.652 832.256 678.044 844.248C688.822 847.8 700.589 851.365 711.888 852.623C712.105 852.647 712.324 852.66 712.543 852.678C715.869 853.752 718.869 855.227 721.857 857.03C707.832 856.975 694.158 857.076 680.165 855.9C670.323 854.102 660.394 852.478 650.695 850.001C628.362 844.297 605.566 834.081 586.932 820.444C579.12 814.728 571.851 808.184 564.508 801.89C560.812 807.247 557.117 812.505 554.265 818.379C545.131 837.19 543.639 860.219 547.423 880.594C548.649 887.199 550.412 893.65 552.221 900.114C557.328 916.03 564.003 928.275 574.779 941.08C558.41 935.634 538.297 925.519 525.464 913.808C532.74 914.534 553.635 925.523 560.593 929.558C550.074 918.882 541.202 907.845 535.65 893.751C523.038 861.738 526.158 824.297 539.544 793.177Z"/>
	<path fill="#C67A17" d="M498.412 797.507C512.045 797.465 526.191 795.907 539.544 793.177C526.158 824.297 523.038 861.738 535.65 893.751C541.202 907.845 550.074 918.882 560.593 929.558C553.635 925.523 532.74 914.534 525.464 913.808C520.525 911.36 515.373 905.914 511.147 902.295C487.111 879.418 467.184 855.262 456.694 823.204C455.301 818.944 453.66 814.411 452.798 810.022C452.095 806.442 451.901 802.642 450.793 799.171L449.6 798.607C451.919 797.714 450.816 796.87 452.404 795.242C463.018 796.554 473.545 797.214 484.227 797.617C488.953 797.594 493.688 797.633 498.412 797.507Z"/>
	<path fill="#AE620C" d="M484.227 797.617C488.953 797.594 493.688 797.633 498.412 797.507C498.23 828.247 502.388 848.809 516.336 876.336C503.287 861.755 495.243 837.096 492.053 817.974C490.988 811.591 491.05 804.848 489.44 798.603C487.773 798.002 485.978 797.869 484.227 797.617Z"/>
	<path fill="#C67A17" d="M616.136 766.218C630.981 758.153 644.522 748.926 658.135 738.928C664.083 745.149 669.77 751.305 676.55 756.652Q684.228 762.33 692.449 767.187Q700.671 772.044 709.349 776.029C711.042 789.264 721.647 802.649 730.635 811.864C733.628 814.933 737.088 817.681 739.972 820.794C733.324 825.92 726.396 830.593 719.451 835.302C714.204 838.86 708.016 842.388 703.728 847.1C706.644 848.997 709.549 850.905 712.543 852.678C712.324 852.66 712.105 852.647 711.888 852.623C700.589 851.365 688.822 847.8 678.044 844.248C641.652 832.256 603.246 812.783 578.584 782.713Q595.549 776.706 611.643 768.652C612.943 767.657 614.674 766.967 616.136 766.218Z"/>
	<path fill="#AE620C" d="M611.643 768.652C612.943 767.657 614.674 766.967 616.136 766.218C616.176 766.373 616.215 766.528 616.258 766.682C620.989 783.785 636.785 801.23 650.085 812.269L649.569 812.497C634.735 803.966 622.016 790.958 614.39 775.552C613.288 773.326 612.617 770.936 611.643 768.652Z"/>
	<path fill="#56BCCF" d="M676.55 756.652Q684.228 762.33 692.449 767.187Q700.671 772.044 709.349 776.029C711.042 789.264 721.647 802.649 730.635 811.864C733.628 814.933 737.088 817.681 739.972 820.794C733.324 825.92 726.396 830.593 719.451 835.302C714.204 838.86 708.016 842.388 703.728 847.1C688.37 836.646 676.405 822.744 670.979 804.741C666.092 788.523 668.606 771.446 676.55 756.652Z"/>
	<path fill="#56BCCF" d="M295.244 212.601C292.639 183.182 298.151 154.546 312.835 128.799C331.349 96.3366 360.645 75.319 396.386 65.5364Q398.11 65.0768 399.846 64.6596Q401.581 64.2425 403.326 63.8679Q405.071 63.4934 406.825 63.1617Q408.578 62.83 410.339 62.5414Q412.101 62.2528 413.868 62.0074Q415.636 61.7621 417.409 61.5601Q419.183 61.3581 420.96 61.1996Q422.738 61.0412 424.519 60.9263Q426.3 60.8114 428.083 60.7402Q429.867 60.669 431.651 60.6415Q433.435 60.614 435.22 60.6303Q437.005 60.6465 438.788 60.7065Q440.572 60.7664 442.354 60.8701Q444.136 60.9737 445.914 61.121Q447.693 61.2683 449.467 61.4591Q451.242 61.6499 453.011 61.8841Q454.78 62.1184 456.543 62.3959Q458.306 62.6734 460.062 62.994Q461.818 63.3146 463.565 63.6781Q465.312 64.0417 467.05 64.4479Q468.788 64.8542 470.515 65.3029Q472.243 65.7516 473.958 66.2425Q475.674 66.7333 477.378 67.2661Q479.081 67.7989 480.771 68.3733Q482.461 68.9476 484.136 69.5632Q485.811 70.1788 487.471 70.8352Q489.13 71.4917 490.773 72.1886Q492.416 72.8855 494.042 73.6224Q495.667 74.3594 497.274 75.136Q498.881 75.9125 500.468 76.7282Q502.056 77.5439 503.622 78.3983Q505.189 79.2526 506.735 80.1451C539.199 98.8012 560.88 129.589 570.514 165.437C571.724 171.154 572.813 176.868 573.441 182.682C573.86 186.569 573.331 194.56 574.543 197.919Q571.104 200.653 567.382 202.99Q563.661 205.327 559.704 207.237C545.771 214.054 528.166 219.438 512.894 214.106C487.003 205.068 468.654 175.908 457.291 152.395C457.897 162.76 462.739 173.962 465.644 183.934C470.453 200.437 475.454 218.284 477.881 235.285C465.233 235.655 452.964 236.796 440.56 239.359C436.871 240.47 432.398 241.545 428.54 241.412C394.901 250.095 365.083 261.922 335.924 280.921C327.5 286.409 318.949 292.335 311.583 299.204C309.022 301.69 306.187 304.616 303.198 306.543Q295.885 312.686 289.09 319.397Q282.295 326.108 276.061 333.343C273.921 327.912 272.435 322.078 270.781 316.478C264.915 296.613 260.204 276.522 258.55 255.829C257.881 247.456 258.36 239.03 257.691 230.678L257.645 230.146C257.942 215.643 258.761 201.487 260.634 187.087C267.134 198.86 277.031 208.915 286.746 218.09C289.076 217.144 292.119 216.258 294.115 214.798C295.177 214.02 295.095 213.84 295.244 212.601Z"/>
	<path fill="#56BCCF" d="M295.244 212.601C295.749 215.353 297.859 224.975 296.847 227.054C293.272 224.31 290.035 221.164 286.746 218.09C289.076 217.144 292.119 216.258 294.115 214.798C295.177 214.02 295.095 213.84 295.244 212.601Z"/>
	<path fill="#F0A021" d="M296.847 227.054C309.467 238.455 325.541 246.445 341.694 251.508C353.877 255.326 367.019 256.168 378.581 250.062C417.593 229.459 433.077 149.146 445.084 109.731C447.172 124.662 452.053 138.338 457.291 152.395C457.897 162.76 462.739 173.962 465.644 183.934C470.453 200.437 475.454 218.284 477.881 235.285C465.233 235.655 452.964 236.796 440.56 239.359C436.871 240.47 432.398 241.545 428.54 241.412C394.901 250.095 365.083 261.922 335.924 280.921C327.5 286.409 318.949 292.335 311.583 299.204C309.022 301.69 306.187 304.616 303.198 306.543Q295.885 312.686 289.09 319.397Q282.295 326.108 276.061 333.343C273.921 327.912 272.435 322.078 270.781 316.478C264.915 296.613 260.204 276.522 258.55 255.829C257.881 247.456 258.36 239.03 257.691 230.678L257.645 230.146C257.942 215.643 258.761 201.487 260.634 187.087C267.134 198.86 277.031 208.915 286.746 218.09C290.035 221.164 293.272 224.31 296.847 227.054Z"/>
	<path fill="#C67A17" d="M428.54 241.412C436.854 227.521 441.86 207.195 443.527 191.37C444.12 185.744 444.073 180.105 444.24 174.458C449.958 196.846 446.023 217.457 440.56 239.359C436.871 240.47 432.398 241.545 428.54 241.412Z"/>
	<path fill="#C67A17" d="M303.198 306.543C288.365 288.724 270.552 247.537 271.852 224.263C272.424 225.12 275.066 236.815 275.928 239.336C283.725 262.154 294.525 281.939 311.583 299.204C309.022 301.69 306.187 304.616 303.198 306.543Z"/>
	<path fill="#56BCCF" d="M797.616 548.936C815.748 542.158 834.097 536.244 853.328 533.646C851.896 543.126 852.591 553.164 851.574 562.758C850.233 575.417 847.105 587.816 845.773 600.469C854.017 603.714 861.689 608.15 869.828 611.435L870.579 612.139C866.376 614.657 861.603 615.941 857.252 618.16C860.414 617.4 863.528 616.579 866.64 615.636C868.358 615.335 870.152 614.654 871.838 614.173L872.566 614.81C877.466 619.022 882.826 622.454 887.542 626.988C909.344 647.946 921.735 676.819 924.267 706.796C926.941 738.442 915.276 773.642 894.713 797.903Q893.742 799.071 892.742 800.214Q891.742 801.357 890.714 802.475Q889.686 803.593 888.631 804.685Q887.575 805.778 886.493 806.843Q885.411 807.909 884.303 808.948Q883.195 809.986 882.061 810.997Q880.928 812.008 879.77 812.991Q878.612 813.973 877.43 814.927Q876.247 815.88 875.042 816.804Q873.837 817.728 872.609 818.622Q871.381 819.516 870.131 820.379Q868.881 821.242 867.611 822.074Q866.34 822.906 865.049 823.706Q863.758 824.506 862.448 825.274Q861.138 826.042 859.809 826.778Q858.48 827.513 857.133 828.215Q855.786 828.917 854.423 829.586Q853.059 830.254 851.679 830.889Q850.299 831.524 848.904 832.124Q847.509 832.724 846.099 833.29Q844.69 833.855 843.267 834.386Q841.844 834.916 840.408 835.411Q838.972 835.906 837.524 836.365Q836.076 836.825 834.618 837.248Q833.159 837.671 831.691 838.058Q830.222 838.445 828.744 838.796Q827.266 839.147 825.78 839.46Q824.294 839.774 822.801 840.051Q821.308 840.328 819.808 840.568Q818.308 840.808 816.803 841.011Q815.298 841.213 813.788 841.379Q812.278 841.544 810.765 841.672C787.698 843.459 758.542 836.879 740.793 821.355C740.727 821.296 740.672 821.227 740.611 821.163L739.972 820.794C737.088 817.681 733.628 814.933 730.635 811.864C721.647 802.649 711.042 789.264 709.349 776.029Q700.671 772.044 692.449 767.187Q684.228 762.33 676.55 756.652C669.77 751.305 664.083 745.149 658.135 738.928C664.748 733.911 670.883 728.395 677.035 722.832C686.372 714.459 695.199 704.84 703.223 695.216L708.062 689.391C713.518 680.327 720.46 672.343 725.731 663.022C730.634 654.834 735.111 646.808 739.109 638.133C746.092 623.437 751.071 609.04 755.646 593.444C756.154 590.863 757.201 588.278 758.022 585.776Q760.892 573.092 762.783 560.225C774.272 558.389 787.062 553.828 797.616 548.936Z"/>
	<path fill="#7FD2DA" d="M757.395 673.234C784.243 680.466 814.419 678.775 841.5 673.734C833.502 699.464 815.443 726.148 799.039 747.508C793.141 755.187 783.935 764.434 780.247 773.184Q778.803 771.766 777.417 770.292Q776.031 768.817 774.706 767.288Q773.381 765.759 772.118 764.177Q770.856 762.595 769.659 760.964Q768.461 759.333 767.33 757.655Q766.2 755.976 765.138 754.254Q764.076 752.531 763.084 750.768Q762.092 749.004 761.173 747.201Q760.253 745.398 759.407 743.56Q758.561 741.722 757.79 739.851Q757.018 737.98 756.323 736.08Q755.628 734.179 755.01 732.252Q754.393 730.325 753.853 728.375Q753.313 726.424 752.853 724.454Q752.393 722.483 752.012 720.496Q751.632 718.508 751.332 716.507C749.796 705.76 750.784 682.136 757.395 673.234Z"/>
	<path fill="#C67A17" d="M725.731 663.022C733.373 666.557 748.867 672.777 757.395 673.234C750.784 682.136 749.796 705.76 751.332 716.507Q751.632 718.508 752.012 720.496Q752.393 722.483 752.853 724.454Q753.313 726.424 753.853 728.375Q754.392 730.325 755.01 732.252Q755.628 734.179 756.323 736.08Q757.018 737.98 757.79 739.851Q758.561 741.722 759.407 743.56Q760.253 745.398 761.173 747.201Q762.092 749.003 763.084 750.767Q764.075 752.531 765.138 754.254Q766.199 755.976 767.33 757.655Q768.461 759.333 769.659 760.964Q770.856 762.595 772.118 764.177Q773.381 765.759 774.706 767.288Q776.031 768.817 777.417 770.292Q778.803 771.766 780.247 773.184C785.763 778.316 791.737 782.479 797.949 786.697C803.052 789.119 808.044 791.725 813.375 793.62C799.75 794.477 786.513 793.043 772.961 792.46C766.145 801.751 752.022 818.59 740.611 821.163L739.972 820.794C737.088 817.681 733.628 814.933 730.635 811.864C721.647 802.649 711.042 789.264 709.349 776.029Q700.671 772.044 692.449 767.187Q684.228 762.33 676.55 756.652C669.77 751.305 664.083 745.149 658.135 738.928C664.748 733.911 670.883 728.395 677.035 722.832C686.372 714.459 695.199 704.84 703.223 695.216L708.062 689.391C713.518 680.327 720.46 672.343 725.731 663.022Z"/>
	<path fill="#AE620C" d="M708.062 689.391C712.901 707.72 719.324 722.994 731.229 738C732.793 739.971 742.64 750.628 742.834 751.146C742.91 751.347 742.809 751.573 742.796 751.787C723.684 737.325 710.844 717.803 703.223 695.216L708.062 689.391Z"/>
	<path fill="#AE620C" d="M677.035 722.832C681.15 727.952 686.28 732.704 691.148 737.137C719.509 762.967 758.057 782.348 796.423 786.73C797.186 786.817 796.993 786.778 797.949 786.697C803.052 789.119 808.044 791.725 813.375 793.62C799.75 794.477 786.513 793.043 772.961 792.46C766.145 801.751 752.022 818.59 740.611 821.163L739.972 820.794C737.088 817.681 733.628 814.933 730.635 811.864C721.647 802.649 711.042 789.264 709.349 776.029Q700.671 772.044 692.449 767.187Q684.228 762.33 676.55 756.652C669.77 751.305 664.083 745.149 658.135 738.928C664.748 733.911 670.883 728.395 677.035 722.832Z"/>
	<path fill="#7FD2DA" d="M739.972 820.794C737.088 817.681 733.628 814.933 730.635 811.864C721.647 802.649 711.042 789.264 709.349 776.029C732.057 785.721 748.512 789.245 772.961 792.46C766.145 801.751 752.022 818.59 740.611 821.163L739.972 820.794Z"/>
	<path fill="#C67A17" d="M797.616 548.936C815.748 542.158 834.097 536.244 853.328 533.646C851.896 543.126 852.591 553.164 851.574 562.758C850.233 575.417 847.105 587.816 845.773 600.469C854.017 603.714 861.689 608.15 869.828 611.435L870.579 612.139C866.376 614.657 861.603 615.941 857.252 618.16C860.414 617.4 863.528 616.579 866.64 615.636C866.059 624.672 861.526 641.507 857.721 649.749C868.51 651.96 879.793 653.305 890.797 653.798L903.258 653.514C881.588 662.896 864.697 669.076 841.5 673.734C814.419 678.775 784.243 680.466 757.395 673.234C748.867 672.777 733.373 666.557 725.731 663.022C730.634 654.834 735.111 646.808 739.109 638.133C746.092 623.437 751.071 609.04 755.646 593.444C756.154 590.863 757.201 588.278 758.022 585.776Q760.892 573.092 762.783 560.225C774.272 558.389 787.062 553.828 797.616 548.936Z"/>
	<path fill="#AE620C" d="M758.022 585.776C760.535 590.316 762.6 595.09 765.159 599.625C775.411 617.79 788.387 630.053 806.72 639.84C801.799 640.4 784.308 629.344 780.072 625.946C769.508 617.472 761.348 605.637 755.646 593.444C756.154 590.863 757.201 588.278 758.022 585.776Z"/>
	<path fill="#7FD2DA" d="M800.228 592.089C815.77 592.535 831.266 594.599 845.773 600.469C854.017 603.714 861.689 608.15 869.828 611.435L870.579 612.139C866.376 614.657 861.603 615.941 857.252 618.16C860.414 617.4 863.528 616.579 866.64 615.636C866.059 624.672 861.526 641.507 857.721 649.749C851.197 648.464 844.615 646.022 838.724 642.949C818.361 632.323 806.968 613.377 800.228 592.089Z"/>
	<path fill="#AE620C" d="M739.109 638.133C741.443 640.835 745.333 642.805 748.432 644.613C766.083 654.91 785.503 659.555 805.749 661.037C828.613 662.711 849.043 660.831 871.598 657.199C877.925 656.18 884.617 655.477 890.797 653.798L903.258 653.514C881.588 662.896 864.697 669.076 841.5 673.734C814.419 678.775 784.243 680.466 757.395 673.234C748.867 672.777 733.373 666.557 725.731 663.022C730.634 654.834 735.111 646.808 739.109 638.133Z"/>
	<path fill="#56BCCF" d="M797.616 548.936C815.748 542.158 834.097 536.244 853.328 533.646C851.896 543.126 852.591 553.164 851.574 562.758C850.233 575.417 847.105 587.816 845.773 600.469C831.266 594.599 815.77 592.535 800.228 592.089C796.972 577.465 795.67 563.839 797.616 548.936Z"/>
	<path fill="#F0A021" d="M514.763 237.469C521.967 236.52 545.534 240.763 552.514 243.643C555.33 244.593 558.188 245.743 561.11 246.3C573.494 250.372 585.742 254.49 597.664 259.814C607.092 265.06 617.072 269.098 626.315 274.736C637.834 281.516 648.722 289.077 659.42 297.08Q663.816 300.864 668.437 304.369C678.548 313.317 689.594 323.169 697.617 334.072C700.535 337.753 703.355 341.625 706.51 345.101C749.222 397.088 767.271 463.444 765.445 530.075C764.93 540.229 763.594 550.132 762.783 560.225Q760.892 573.092 758.022 585.776C757.201 588.278 756.154 590.863 755.646 593.444C751.071 609.04 746.092 623.437 739.109 638.133C735.111 646.808 730.634 654.834 725.731 663.022C720.46 672.343 713.518 680.327 708.062 689.391L703.223 695.216C695.199 704.84 686.372 714.459 677.035 722.832C670.883 728.395 664.748 733.911 658.135 738.928C644.522 748.926 630.981 758.153 616.136 766.218C614.674 766.967 612.943 767.657 611.643 768.652Q595.549 776.706 578.584 782.713C565.795 786.74 552.814 791.071 539.544 793.177C526.191 795.907 512.045 797.465 498.412 797.507C493.688 797.633 488.953 797.594 484.227 797.617C473.545 797.214 463.018 796.554 452.404 795.242C442.11 793.272 431.759 791.806 421.563 789.322C413.337 787.318 405.357 784.48 397.186 782.281C382.338 777.456 368.841 770.163 355.201 762.681L347.977 758.606C335.225 751.33 324.039 742.381 312.607 733.243C308.488 730.282 304.63 726.96 300.725 723.725C293.629 716.823 287.103 710.08 280.791 702.426L278.292 700.022Q269.31 688.489 260.912 676.524C259.572 674.304 257.938 672.22 256.423 670.115C249.886 660.034 243.668 649.332 238.636 638.419C239.952 638.028 240.686 637.599 241.763 636.73C242.98 635.747 244.28 635.194 245.195 633.91C255.344 654.22 271.672 681.873 287.92 697.357C291.526 699.791 294.792 703.086 298.205 705.809C305.992 712.024 315.512 717.399 324.259 722.201C367.809 746.108 414.699 753.97 463.793 748.225Q466.72 747.899 469.638 747.502Q472.556 747.105 475.464 746.636Q478.371 746.168 481.267 745.628Q484.162 745.088 487.043 744.477Q489.924 743.866 492.789 743.185Q495.654 742.503 498.502 741.752Q501.349 741 504.178 740.179Q507.006 739.358 509.813 738.468Q512.62 737.578 515.405 736.619Q518.19 735.66 520.95 734.633Q523.71 733.606 526.444 732.512Q529.178 731.417 531.885 730.256Q534.591 729.095 537.269 727.868Q539.946 726.64 542.592 725.348Q545.238 724.055 547.852 722.698Q550.466 721.341 553.045 719.92Q555.625 718.499 558.169 717.016Q560.713 715.532 563.22 713.986Q565.727 712.44 568.195 710.834Q570.663 709.227 573.091 707.56Q575.519 705.893 577.905 704.167Q580.292 702.441 582.635 700.657Q584.978 698.873 587.277 697.032Q589.576 695.191 591.829 693.294Q594.081 691.398 596.287 689.446Q598.493 687.495 600.65 685.49Q602.807 683.484 604.914 681.427Q607.021 679.37 609.078 677.261Q611.134 675.152 613.137 672.994Q615.141 670.836 617.091 668.629Q619.042 666.422 620.937 664.168Q622.832 661.914 624.672 659.614C629.05 654.05 651.384 625.71 650.603 619.111C662.741 614.775 674.357 603.534 681.052 592.797C673.137 600.29 664.715 604.919 654.805 609.378C656.793 604.756 659.813 600.31 662.084 595.773C665.578 588.793 668.349 581.356 671.013 574.025C662.587 576.64 653.035 578.761 644.171 579.032C654.023 575.753 664.947 574.84 673.643 568.733C674.993 560.512 678.967 551.229 681.058 542.909C685.484 525.292 686.611 506.894 686.88 488.778C687.957 416.093 656.502 345.33 605.485 294.157C595.754 284.396 585.187 274.563 574.469 265.896C570.311 262.534 564.175 259.722 560.629 255.86C560.418 255.63 560.215 255.392 560.009 255.158C545.84 250.481 530.857 247.991 516.1 246.059C516.335 245.677 516.481 245.496 516.583 245.01C517.131 242.394 516.001 239.698 514.763 237.469Z"/>
	<path fill="#FEFEF6" d="M673.643 568.733C699.726 555.126 721.479 546.33 731.173 515.777C734.401 505.603 735.002 495.654 735.149 485.076C739.847 502.409 739.493 520.128 730.428 535.995C717.533 558.566 694.872 567.571 671.013 574.025C662.587 576.64 653.035 578.761 644.171 579.032C654.023 575.753 664.947 574.84 673.643 568.733Z"/>
	<defs>
		<linearGradient id="gradient_1" gradientUnits="userSpaceOnUse" x1="732.74487" y1="648.97321" x2="379.36023" y2="458.41843">
			<stop offset="0" stop-color="#8C171B"/>
			<stop offset="1" stop-color="#AA3227"/>
		</linearGradient>
	</defs>
	<path fill="url(#gradient_1)" d="M514.763 237.469C521.967 236.52 545.534 240.763 552.514 243.643C555.33 244.593 558.188 245.743 561.11 246.3C573.494 250.372 585.742 254.49 597.664 259.814C607.092 265.06 617.072 269.098 626.315 274.736C637.834 281.516 648.722 289.077 659.42 297.08Q663.816 300.864 668.437 304.369C678.548 313.317 689.594 323.169 697.617 334.072C700.535 337.753 703.355 341.625 706.51 345.101C749.222 397.088 767.271 463.444 765.445 530.075C764.93 540.229 763.594 550.132 762.783 560.225Q760.892 573.092 758.022 585.776C757.201 588.278 756.154 590.863 755.646 593.444C751.071 609.04 746.092 623.437 739.109 638.133C735.111 646.808 730.634 654.834 725.731 663.022C720.46 672.343 713.518 680.327 708.062 689.391L703.223 695.216C695.199 704.84 686.372 714.459 677.035 722.832C670.883 728.395 664.748 733.911 658.135 738.928C644.522 748.926 630.981 758.153 616.136 766.218C614.674 766.967 612.943 767.657 611.643 768.652Q595.549 776.706 578.584 782.713C565.795 786.74 552.814 791.071 539.544 793.177C526.191 795.907 512.045 797.465 498.412 797.507C493.688 797.633 488.953 797.594 484.227 797.617C473.545 797.214 463.018 796.554 452.404 795.242C442.11 793.272 431.759 791.806 421.563 789.322C413.337 787.318 405.357 784.48 397.186 782.281C382.338 777.456 368.841 770.163 355.201 762.681L347.977 758.606C335.225 751.33 324.039 742.381 312.607 733.243C308.488 730.282 304.63 726.96 300.725 723.725C293.629 716.823 287.103 710.08 280.791 702.426L278.292 700.022Q269.31 688.489 260.912 676.524C259.572 674.304 257.938 672.22 256.423 670.115C249.886 660.034 243.668 649.332 238.636 638.419C239.952 638.028 240.686 637.599 241.763 636.73C242.98 635.747 244.28 635.194 245.195 633.91C255.344 654.22 271.672 681.873 287.92 697.357L287.563 698.822C289.956 701.016 292.051 703.704 294.304 706.07Q300.558 712.699 307.39 718.731C343.088 750.421 384.654 773.355 431.363 783.796Q434.562 784.503 437.778 785.132Q440.994 785.76 444.224 786.31Q447.454 786.859 450.697 787.328Q453.94 787.798 457.193 788.187Q460.447 788.577 463.709 788.886Q466.971 789.195 470.239 789.424Q473.508 789.653 476.781 789.801Q480.054 789.95 483.33 790.017Q486.606 790.085 489.883 790.072Q493.159 790.059 496.435 789.965Q499.71 789.872 502.982 789.698Q506.254 789.523 509.521 789.269Q512.787 789.014 516.047 788.679Q519.306 788.344 522.557 787.929Q525.807 787.513 529.046 787.018Q532.285 786.523 535.51 785.948Q538.736 785.374 541.947 784.72Q545.158 784.066 548.351 783.333Q551.545 782.6 554.719 781.789Q557.894 780.978 561.048 780.089Q564.201 779.2 567.332 778.234Q570.463 777.267 573.569 776.224Q576.675 775.181 579.755 774.061Q582.834 772.942 585.885 771.747Q588.936 770.552 591.957 769.283Q594.978 768.013 597.966 766.669Q600.955 765.326 603.909 763.909Q606.864 762.492 609.782 761.003Q612.701 759.514 615.582 757.954Q618.463 756.393 621.305 754.762Q624.147 753.131 626.948 751.431Q629.749 749.731 632.507 747.962Q634.607 746.632 636.682 745.264Q638.758 743.896 640.807 742.49Q642.857 741.083 644.881 739.64Q646.904 738.196 648.901 736.716Q650.898 735.235 652.867 733.719Q654.836 732.202 656.777 730.649Q658.718 729.096 660.631 727.508Q662.543 725.92 664.425 724.297Q666.308 722.674 668.161 721.016Q670.013 719.359 671.835 717.668Q673.657 715.977 675.447 714.253Q677.238 712.528 678.996 710.771Q680.755 709.014 682.481 707.226Q684.206 705.437 685.899 703.616Q687.592 701.796 689.251 699.945Q690.91 698.094 692.535 696.213Q694.159 694.332 695.749 692.421Q697.339 690.51 698.894 688.57Q700.448 686.631 701.967 684.663Q703.486 682.695 704.968 680.7Q706.45 678.704 707.896 676.682Q709.341 674.66 710.749 672.611Q712.157 670.563 713.527 668.489Q714.897 666.415 716.229 664.316Q717.561 662.217 718.854 660.094Q720.147 657.971 721.4 655.825Q722.654 653.678 723.868 651.509Q725.082 649.34 726.257 647.149Q727.431 644.958 728.564 642.746Q729.698 640.534 730.791 638.301Q731.884 636.069 732.935 633.817Q733.987 631.564 734.997 629.293C742.855 611.356 748.65 591.939 752.894 572.836C766.807 510.21 754.287 431.681 719.634 377.415C712.042 365.527 704.212 353.21 695.084 342.422Q692.4 339.258 689.622 336.176Q686.845 333.093 683.978 330.094Q681.11 327.095 678.155 324.183Q675.199 321.271 672.158 318.448Q669.118 315.625 665.995 312.893Q662.872 310.161 659.669 307.524Q656.466 304.886 653.186 302.345Q649.906 299.804 646.552 297.361Q643.198 294.918 639.773 292.576Q636.348 290.234 632.855 287.995Q629.362 285.756 625.804 283.621Q622.246 281.487 618.626 279.459Q615.006 277.431 611.327 275.512Q607.649 273.593 603.915 271.783Q600.181 269.974 596.395 268.277Q592.609 266.579 588.774 264.995C579.453 261.122 569.887 257.34 560.009 255.158C545.84 250.481 530.857 247.991 516.1 246.059C516.335 245.677 516.481 245.496 516.583 245.01C517.131 242.394 516.001 239.698 514.763 237.469Z"/>
	<path fill="#C94D2C" d="M245.195 633.91C255.344 654.22 271.672 681.873 287.92 697.357L287.563 698.822L286.447 698.507C286.32 698.244 286.197 697.98 286.066 697.72C284.898 695.404 272.085 679.306 270.206 677.419C269.543 676.753 268.978 676.494 268.172 676.024C267.962 675.902 267.761 675.763 267.554 675.636C267.429 675.56 267.303 675.487 267.177 675.413C267.224 672.63 266.074 672.889 265.245 670.653C264.397 673.934 267.327 674.811 265.141 680.434C268.101 686.225 275.963 696.499 280.557 700.975C281.82 700.935 281.77 700.818 282.758 700.168L283.063 700.921L282.948 700.426C282.234 701.097 281.532 701.786 280.791 702.426L278.292 700.022Q269.31 688.489 260.912 676.524C259.572 674.304 257.938 672.22 256.423 670.115C249.886 660.034 243.668 649.332 238.636 638.419C239.952 638.028 240.686 637.599 241.763 636.73C242.98 635.747 244.28 635.194 245.195 633.91Z"/>
	<path fill="#FED032" d="M440.56 239.359C452.964 236.796 465.233 235.655 477.881 235.285C488.629 235.459 503.363 234.449 513.454 237.519C514.121 237.722 513.888 237.641 514.763 237.469C516.001 239.698 517.131 242.394 516.583 245.01C516.481 245.496 516.335 245.677 516.1 246.059C530.857 247.991 545.84 250.481 560.009 255.158C560.215 255.392 560.418 255.63 560.629 255.86C564.175 259.722 570.311 262.534 574.469 265.896C585.187 274.563 595.754 284.396 605.485 294.157C656.502 345.33 687.957 416.093 686.88 488.778C686.611 506.894 685.484 525.292 681.058 542.909C678.967 551.229 674.993 560.512 673.643 568.733C664.947 574.84 654.023 575.753 644.171 579.032C653.035 578.761 662.587 576.64 671.013 574.025C668.349 581.356 665.578 588.793 662.084 595.773C659.813 600.31 656.793 604.756 654.805 609.378C664.715 604.919 673.137 600.29 681.052 592.797C674.357 603.534 662.741 614.775 650.603 619.111C651.384 625.71 629.05 654.05 624.672 659.614Q622.832 661.914 620.937 664.168Q619.042 666.422 617.091 668.629Q615.141 670.836 613.137 672.994Q611.134 675.152 609.078 677.261Q607.021 679.37 604.914 681.427Q602.807 683.484 600.65 685.49Q598.493 687.495 596.287 689.446Q594.082 691.398 591.829 693.294Q589.576 695.191 587.277 697.032Q584.978 698.873 582.635 700.657Q580.292 702.441 577.905 704.167Q575.519 705.893 573.091 707.56Q570.663 709.227 568.195 710.833Q565.727 712.44 563.22 713.986Q560.713 715.532 558.169 717.016Q555.625 718.499 553.046 719.92Q550.466 721.341 547.852 722.698Q545.238 724.055 542.592 725.348Q539.946 726.64 537.269 727.868Q534.591 729.095 531.885 730.256Q529.178 731.417 526.444 732.511Q523.71 733.606 520.95 734.633Q518.19 735.66 515.405 736.619Q512.62 737.578 509.813 738.468Q507.006 739.358 504.178 740.179Q501.349 741 498.502 741.752Q495.654 742.503 492.789 743.185Q489.924 743.866 487.043 744.477Q484.162 745.088 481.267 745.628Q478.371 746.168 475.464 746.636Q472.556 747.105 469.638 747.502Q466.72 747.899 463.793 748.225C414.699 753.97 367.809 746.108 324.259 722.201C315.512 717.399 305.992 712.024 298.205 705.809C294.792 703.086 291.526 699.791 287.92 697.357C271.672 681.873 255.344 654.22 245.195 633.91C244.28 635.194 242.98 635.747 241.763 636.73C240.686 637.599 239.952 638.028 238.636 638.419L237.795 637.208C233.596 626.433 228.773 615.91 224.604 605.107C222.664 596.122 216.332 582.577 216.419 574.061C216.866 571.582 212.95 552.538 212.489 547.669C212.344 544.574 211.839 541.426 211.481 538.345C210.316 521.973 210.366 505.958 211.282 489.574C212.972 483.213 213.807 476.649 214.628 470.131C215.691 461.787 216.715 453.494 218.891 445.35C220.587 441.399 221.7 437.122 222.978 433.018C224.367 429.29 225.019 425.339 226.522 421.591C230.728 413.256 233.302 403.993 237.46 395.547C243.528 383.222 252.29 370.867 256.951 358.063C261.164 350.02 270.742 341.391 276.061 333.343Q282.295 326.108 289.09 319.397Q295.885 312.686 303.198 306.543C306.187 304.616 309.022 301.69 311.583 299.204C318.949 292.335 327.5 286.409 335.924 280.921C365.083 261.922 394.901 250.095 428.54 241.412C432.398 241.545 436.871 240.47 440.56 239.359Z"/>
	<path fill="#F0A021" d="M366.205 669.903C379.341 681.523 396.325 687.122 413.146 679.905C414.956 679.128 419.685 676.077 421.332 676.31L419.785 678.068C418.459 679.138 417.125 680.21 415.723 681.179C408.225 686.361 398.938 687.834 390.055 686.206C379.324 684.239 372.305 678.743 366.205 669.903Z"/>
	<path fill="#FEFEF6" d="M485.465 309.014L485.778 309.552C482.395 315.926 471.773 325.033 465.785 329.211C452.821 338.257 431.66 342.895 416.113 340.08L414.72 339.698L414.651 339.312C448.167 337.913 460.857 332.65 485.465 309.014Z"/>
	<path fill="#F0A021" d="M339.265 675.805C342.949 679.407 345.033 685.364 348.346 689.478C362.254 706.748 381.53 715.5 403.39 708.317C405.135 707.744 412.074 704.034 413.294 704.348L412.2 705.492Q410.678 706.675 409.051 707.709Q407.425 708.744 405.708 709.622Q403.992 710.499 402.201 711.211Q400.409 711.924 398.559 712.465C387.377 715.782 375.352 715.45 365.032 709.749C351.92 702.507 343.38 689.957 339.265 675.805Z"/>
	<path fill="#FEFEF6" d="M459.045 299.542C458.823 300.53 458.541 301.007 457.974 301.835C450.27 313.091 436.598 321.915 423.01 323.5C416.976 324.203 410.786 323.719 404.815 324.859C389.163 327.846 378.809 337.333 370.128 350.094C370.102 349.423 370.062 349.332 370.243 348.575C371.292 344.184 376.159 338.985 379.211 335.83C401.584 312.699 411.817 322.768 436.684 313.74C445.535 310.526 451.629 305.033 459.045 299.542Z"/>
	<path fill="#FEFEF6" d="M442.158 279.93L442.655 279.996C442.668 281.121 438.043 284.765 436.885 285.78C431.023 290.92 424.396 296.693 417.255 299.846C411.527 302.375 405.704 303.46 399.56 304.423C380.809 307.363 369.915 309.247 356.633 323.601L356.308 323.742C356.317 323.465 356.279 323.181 356.335 322.909C356.867 320.293 360.266 316.917 362.088 314.995C372.952 303.532 385.663 300.059 400.782 297.548C406.194 296.649 411.658 295.883 416.862 294.078C425.929 290.934 434.039 284.944 442.158 279.93Z"/>
	<path fill="#FEFEF6" d="M661.783 488.846C662.233 490.799 661.656 492.931 661.114 494.823C656.636 510.455 648.455 522.221 633.968 529.971C624.829 534.859 610.671 537.672 600.587 534.685L599.706 533.383C600.605 532.491 613.196 531.403 616.093 530.578C628.719 526.98 645.628 513.458 653.514 503.009C656.884 498.544 659.133 493.716 661.783 488.846Z"/>
	<path fill="#C67A17" d="M288.796 439.884C289.642 425.118 289.316 414.954 299.466 402.895C306.746 394.245 317.286 387.924 328.679 387.065Q329.639 386.984 330.601 386.951Q331.564 386.918 332.527 386.934Q333.49 386.95 334.45 387.014Q335.411 387.079 336.368 387.191Q337.324 387.304 338.274 387.464Q339.224 387.625 340.164 387.833Q341.104 388.042 342.033 388.297Q342.961 388.552 343.876 388.854Q344.79 389.156 345.689 389.503Q346.587 389.851 347.466 390.243Q348.346 390.635 349.205 391.071Q350.063 391.507 350.899 391.986Q351.735 392.465 352.545 392.985Q353.356 393.505 354.139 394.066Q354.922 394.626 355.676 395.225Q356.43 395.825 357.153 396.461C364.848 403.2 373.032 416.68 373.663 426.97L372.52 428.045C371.431 428.468 370.34 428.845 369.35 429.475C366.899 416.623 362.4 403.791 350.994 396.13C343.024 390.777 332.869 389.255 323.55 391.249Q322.642 391.436 321.745 391.669Q320.848 391.902 319.964 392.18Q319.08 392.458 318.211 392.781Q317.341 393.103 316.49 393.469Q315.638 393.834 314.806 394.243Q313.974 394.651 313.164 395.101Q312.353 395.551 311.566 396.041Q310.78 396.531 310.019 397.06Q309.258 397.589 308.525 398.156Q307.791 398.723 307.088 399.327Q306.384 399.93 305.712 400.568Q305.04 401.206 304.4 401.877Q303.761 402.548 303.157 403.251Q302.552 403.954 301.984 404.686Q301.416 405.418 300.885 406.178Q300.354 406.938 299.863 407.724C293.885 417.202 292.112 428.961 291.204 439.912C290.263 439.767 289.726 439.615 288.796 439.884Z"/>
	<path fill="#C67A17" d="M465.532 430.464C464.563 424.374 472.378 408.551 476.176 403.361C482.79 394.324 492.272 386.745 503.612 385.071C513.613 383.595 523.397 386.501 531.408 392.552C544.346 402.324 549.759 418.021 551.955 433.509C552.238 435.504 552.366 437.471 551.854 439.438C551.114 440.193 551.044 440.248 549.956 440.544C549.076 439.526 548.624 439.501 547.381 439.051C546.791 428 544.615 418.083 538.893 408.495C533.63 399.674 526.394 392.504 516.19 389.97C507.8 387.886 499.374 389.312 491.994 393.763C478.881 401.672 472.531 415.762 468.949 430.033C467.735 430.074 466.676 430.017 465.532 430.464Z"/>
	<path fill="#A62B25" d="M369.35 429.475C370.34 428.845 371.431 428.468 372.52 428.045C372.478 428.291 372.432 428.537 372.394 428.784C371.868 432.165 372.208 435.981 371.892 439.449C370.691 452.656 365.851 463.378 355.101 471.509C346.304 478.163 335.521 481.606 324.507 480.006C313.719 478.438 304.5 472.341 298.094 463.618C292.415 455.886 291.181 448.825 288.796 439.884C289.726 439.615 290.263 439.767 291.204 439.912C292.255 440.511 293.296 441.152 294.383 441.681L294.596 443.897C294.912 445.333 295.282 446.783 295.737 448.181C298.922 457.958 306.055 466.648 315.296 471.248Q316.016 471.611 316.754 471.938Q317.491 472.265 318.244 472.555Q318.997 472.845 319.763 473.097Q320.529 473.349 321.307 473.563Q322.085 473.776 322.873 473.951Q323.661 474.126 324.456 474.261Q325.251 474.396 326.052 474.491Q326.853 474.586 327.658 474.642Q328.463 474.697 329.269 474.712Q330.076 474.727 330.882 474.702Q331.689 474.677 332.493 474.612Q333.297 474.547 334.097 474.442Q334.896 474.337 335.69 474.192Q336.484 474.047 337.269 473.863Q338.054 473.679 338.83 473.456Q339.605 473.232 340.368 472.971C350.488 469.546 358.37 462.18 363.039 452.635C365.084 448.455 368.943 438.2 367.397 433.747C367.928 432.405 367.871 432.436 367.389 431.064L369.35 429.475Z"/>
	<path fill="#FEFEF6" d="M654.805 609.378C664.715 604.919 673.137 600.29 681.052 592.797C674.357 603.534 662.741 614.775 650.603 619.111C644.474 621.033 638.3 622.749 631.903 623.503C621.323 624.75 610.499 624.282 599.958 625.902C587.504 627.817 579.081 633.363 571.651 643.386C571.885 642.449 572.134 641.535 572.464 640.626C574.273 635.642 577.6 631.229 581.618 627.807C602.196 610.283 631.925 620.398 654.805 609.378Z"/>
	<defs>
		<linearGradient id="gradient_2" gradientUnits="userSpaceOnUse" x1="632.90631" y1="579.56049" x2="622.76508" y2="562.41174">
			<stop offset="0" stop-color="#FCF8E5"/>
			<stop offset="1" stop-color="#FEFDFF"/>
		</linearGradient>
	</defs>
	<path fill="url(#gradient_2)" d="M673.254 530.378L673.885 531.491C674.096 538.692 668.614 548.601 664.755 554.514C660.13 561.605 654.135 567.918 647.028 572.554C630.244 583.503 606.264 589.134 587.005 594.482C578.787 596.764 570.612 599.277 562.264 601.045L561.939 600.865C562.952 599.703 573.255 596.17 575.31 595.379C586.346 591.129 597.098 586.311 607.987 581.724C638.48 568.877 656.693 561.003 673.254 530.378Z"/>
	<path fill="#2A181B" d="M320.72 358.654C324.323 358.36 327.932 358.208 331.503 358.905C344.492 361.439 350.904 374.691 357.496 384.81C342.212 378.364 327.695 374.395 311.055 373.729C295.317 374.513 286.534 378.287 274.554 388.282Q275.219 387.31 275.909 386.356C286.813 371.299 302.35 361.589 320.72 358.654Z"/>
	<path fill="#2A181B" d="M515.649 350.196C516.582 350.085 516.342 350.092 517.146 350.062C537.536 349.314 555.129 358.195 569.801 371.932C552.465 363.9 538.444 362.896 519.592 365.157C503.29 367.656 488.509 372.716 474.302 381.081C476.973 375.684 479.469 369.99 483.314 365.305C491.263 355.621 503.563 351.42 515.649 350.196Z"/>
	<path fill="#A62B25" d="M426.831 553.205C431.626 552.513 437.049 552.703 441.902 552.804Q446.642 552.9 451.371 553.232Q456.101 553.563 460.808 554.129Q465.515 554.694 470.188 555.493Q474.862 556.292 479.49 557.321Q484.118 558.35 488.689 559.608Q493.26 560.866 497.763 562.349Q502.266 563.832 506.69 565.536Q511.114 567.241 515.448 569.163C516.859 569.795 524.551 572.898 524.932 573.893C522.149 573.508 509.362 568.303 505.159 567.031C480.742 559.645 456.979 557.109 431.607 560.948C417.237 564.096 402.627 570.575 390.823 579.387C385.021 583.718 372.426 596.579 366.684 598.2C364.313 598.869 361.627 598.805 359.502 597.458C357.536 596.211 355.631 593.645 355.285 591.309C354.842 588.319 356.477 585.39 358.295 583.154C361.506 579.205 365.966 576.032 370.119 573.159C387.27 561.292 406.149 555.154 426.831 553.205Z"/>
	<path fill="#FEFEF6" d="M294.383 441.681C321.158 449.296 343.486 444.292 367.389 431.064C367.871 432.436 367.928 432.405 367.397 433.747C368.943 438.2 365.084 448.455 363.039 452.635C358.37 462.18 350.488 469.546 340.368 472.971Q339.605 473.232 338.83 473.456Q338.054 473.679 337.269 473.863Q336.484 474.047 335.69 474.192Q334.896 474.337 334.096 474.442Q333.297 474.547 332.493 474.612Q331.689 474.677 330.882 474.702Q330.076 474.727 329.269 474.712Q328.463 474.697 327.658 474.642Q326.853 474.586 326.052 474.491Q325.251 474.396 324.456 474.261Q323.66 474.125 322.873 473.951Q322.085 473.776 321.307 473.563Q320.529 473.349 319.763 473.097Q318.997 472.845 318.244 472.555Q317.491 472.265 316.754 471.938Q316.016 471.611 315.296 471.248C306.055 466.648 298.922 457.958 295.737 448.181C295.282 446.783 294.912 445.333 294.596 443.897L294.383 441.681Z"/>
	<path fill="#4C280B" d="M294.383 441.681C321.158 449.296 343.486 444.292 367.389 431.064C367.871 432.436 367.928 432.405 367.397 433.747C361.924 438.383 355.634 442.015 349.474 445.663C349.139 449.28 348.889 452.677 345.899 455.184C343.691 457.036 339.976 459.313 336.978 459.194C335.224 459.125 333.628 458.081 332.589 456.71C331.445 455.201 330.64 451.651 328.868 451.257C325.89 450.595 322.334 451.187 319.259 450.977C310.934 450.407 301.977 447.774 294.596 443.897L294.383 441.681Z"/>
	<path fill="#FEFEF6" d="M347.327 446.571L347.8 446.952C347.946 447.672 348.139 448.444 347.991 449.182C347.406 452.103 344.33 454.266 341.91 455.554C338.816 457.201 336.464 457.12 333.183 456.099C332.751 455.65 332.191 455.137 331.862 454.593C331.239 453.561 331.232 452.883 331.537 451.771C334.396 449.166 343.351 447.894 347.327 446.571Z"/>
	<path fill="#52211C" d="M465.532 430.464C466.676 430.017 467.735 430.074 468.949 430.033C493.242 438.048 521.903 445.047 547.381 439.051C548.624 439.501 549.076 439.526 549.956 440.544C548.485 442.2 547.039 451.138 546.107 453.834C542.121 465.364 534.358 475.246 523.254 480.628C514.988 484.635 505.766 484.817 497.181 481.708C481.364 475.98 470.355 459.576 467.264 443.502C466.593 440.011 467.491 434.101 465.908 431.122C465.79 430.899 465.657 430.683 465.532 430.464Z"/>
	<path fill="#FEFEF6" d="M470.806 435.287C474.143 436.759 485.557 440.041 487.16 441.631L488.182 441.666C489.424 441.639 514.825 445.518 515.984 445.906L516.57 446.506C516.887 446.055 517.162 445.689 517.747 445.556C520.865 444.849 524.936 445.108 528.172 444.902C533.826 444.542 539.373 443.929 544.953 442.937C543.311 449.513 541.121 455.502 537.298 461.153C531.824 469.244 523.727 475.645 513.946 477.417C505.675 478.914 497.457 476.824 490.66 471.997C478.341 463.248 473.32 449.555 470.806 435.287Z"/>
	<path fill="#4C280B" d="M487.16 441.631L488.182 441.666C491.09 446.565 494.603 449.925 500.339 451.34C504.555 452.38 508.941 451.991 512.608 449.552C514.086 448.569 515.087 447.442 515.984 445.906L516.57 446.506C516.38 447.359 516.441 447.276 516.099 448.073C515.129 450.337 512.259 452.578 509.973 453.392C505.656 454.93 500.184 454.107 496.153 452.123C491.337 449.753 488.882 446.608 487.16 441.631Z"/>
	<path fill="#FEFEF6" d="M488.182 441.666C489.424 441.639 514.825 445.518 515.984 445.906C515.087 447.442 514.086 448.569 512.608 449.552C508.941 451.991 504.555 452.38 500.339 451.34C494.603 449.925 491.09 446.565 488.182 441.666Z"/>
	<path fill="#FED032" d="M468.949 430.033C472.531 415.762 478.881 401.672 491.994 393.763C499.374 389.312 507.8 387.886 516.19 389.97C526.394 392.504 533.63 399.674 538.893 408.495C544.615 418.083 546.791 428 547.381 439.051C521.903 445.047 493.242 438.048 468.949 430.033Z"/>
	<path fill="#FED032" d="M291.204 439.912C292.112 428.961 293.885 417.202 299.863 407.724Q300.354 406.938 300.885 406.178Q301.416 405.418 301.984 404.686Q302.552 403.954 303.157 403.251Q303.761 402.548 304.4 401.877Q305.04 401.206 305.712 400.568Q306.384 399.93 307.088 399.327Q307.791 398.723 308.525 398.156Q309.258 397.589 310.019 397.06Q310.78 396.531 311.566 396.041Q312.353 395.551 313.164 395.101Q313.974 394.651 314.806 394.243Q315.638 393.834 316.49 393.469Q317.341 393.103 318.211 392.781Q319.08 392.458 319.964 392.18Q320.848 391.902 321.745 391.669Q322.642 391.436 323.55 391.249C332.869 389.255 343.024 390.777 350.994 396.13C362.4 403.791 366.899 416.623 369.35 429.475L367.389 431.064C343.486 444.292 321.158 449.296 294.383 441.681C293.296 441.152 292.255 440.511 291.204 439.912Z"/>
	<path fill="#F0A021" d="M559.549 497.568C568.259 497.096 575.514 498.394 582.697 503.573C590.252 509.022 595.104 517.826 596.558 526.954C598.623 539.921 594.297 553.63 586.593 564.069C580.303 572.592 572.194 576.458 561.881 577.981C554.198 578.322 547.198 577.492 540.427 573.597C532.445 569.006 526.978 561.181 524.601 552.364C521.576 541.149 523.215 529.69 529.109 519.702C536.024 507.984 546.556 501.004 559.549 497.568Z"/>
	<path fill="#F0A021" d="M285.039 491.631C294.014 490.697 303.057 491.556 311.018 496.076C320.15 501.26 326.935 509.502 329.678 519.68C332.479 530.078 331.15 542.382 325.677 551.705C319.707 561.875 310.061 567.696 298.886 570.603C288.846 571.852 278.867 571.166 270.175 565.514C261.285 559.734 254.978 549.426 252.902 539.124C250.704 528.215 253.426 516.833 259.586 507.659C265.897 498.262 274.104 493.731 285.039 491.631Z"/>
	<path fill="#EF7724" d="M440.56 239.359C452.964 236.796 465.233 235.655 477.881 235.285C488.629 235.459 503.363 234.449 513.454 237.519C514.121 237.722 513.888 237.641 514.763 237.469C516.001 239.698 517.131 242.394 516.583 245.01C516.481 245.496 516.335 245.677 516.1 246.059C510.717 245.785 505.377 244.956 499.993 244.636C488.191 243.936 476.101 244.165 464.32 245.07C449.013 246.245 433.583 249.496 418.796 253.568C379.002 264.528 342.605 282.756 311.836 310.523C303.09 318.416 294.073 326.438 286.317 335.318C246.639 380.747 222.226 442.289 219.198 502.5C216.832 549.56 227.299 590.735 245.195 633.91C244.28 635.194 242.98 635.747 241.763 636.73C240.686 637.599 239.952 638.028 238.636 638.419L237.795 637.208C233.596 626.433 228.773 615.91 224.604 605.107C222.664 596.122 216.332 582.577 216.419 574.061C216.866 571.582 212.95 552.538 212.489 547.669C212.344 544.574 211.839 541.426 211.481 538.345C210.316 521.973 210.366 505.958 211.282 489.574C212.972 483.213 213.807 476.649 214.628 470.131C215.691 461.787 216.715 453.494 218.891 445.35C220.587 441.399 221.7 437.122 222.978 433.018C224.367 429.29 225.019 425.339 226.522 421.591C230.728 413.256 233.302 403.993 237.46 395.547C243.528 383.222 252.29 370.867 256.951 358.063C261.164 350.02 270.742 341.391 276.061 333.343Q282.295 326.108 289.09 319.397Q295.885 312.686 303.198 306.543C306.187 304.616 309.022 301.69 311.583 299.204C318.949 292.335 327.5 286.409 335.924 280.921C365.083 261.922 394.901 250.095 428.54 241.412C432.398 241.545 436.871 240.47 440.56 239.359Z"/>
</svg>
